<svg width="220" height="135" viewBox="0 0 220 135" fill="none" xmlns="http://www.w3.org/2000/svg">
    <path d="M110 32.2414L90.1552 43.8793L58.9689 25.5923L78.8137 13.9643L110 32.2414Z" fill="#AA3EFF"/>
    <path d="M74.8448 11.6379L55 23.2646L24.3596 41.2293L19.8448 43.8793L0 55.5159V32.2414L55 0L74.8448 11.6379Z" fill="#AA3EFF"/>
    <path d="M74.8448 117.329L55 128.966L0 96.7241V60.1711L19.8448 48.5332V85.0875L55 105.702L74.8448 117.329Z" fill="#AA3EFF"/>
    <path d="M110 73.4607V96.7241L78.8138 115.001L58.9592 103.374L60.2488 102.618L90.1552 85.0874L110 73.4607Z" fill="#AA3EFF"/>
    <path d="M100.619 69.9091V60.3636H138.545V69.9091H125.42V104H113.744V69.9091H100.619ZM143.004 104V60.3636H161.839C165.078 60.3636 167.912 60.9531 170.341 62.1321C172.77 63.3111 174.659 65.0085 176.008 67.2244C177.358 69.4403 178.032 72.0966 178.032 75.1932C178.032 78.3182 177.336 80.9531 175.944 83.098C174.566 85.2429 172.627 86.8622 170.127 87.956C167.642 89.0497 164.737 89.5966 161.413 89.5966H150.163V80.392H159.027C160.419 80.392 161.605 80.2216 162.585 79.8807C163.579 79.5256 164.339 78.9645 164.865 78.1974C165.404 77.4304 165.674 76.429 165.674 75.1932C165.674 73.9432 165.404 72.9276 164.865 72.1463C164.339 71.3509 163.579 70.7685 162.585 70.3991C161.605 70.0156 160.419 69.8239 159.027 69.8239H154.85V104H143.004ZM168.572 83.9716L179.481 104H166.612L155.958 83.9716H168.572ZM183.082 104V60.3636H194.929V94.4545H212.571V104H183.082Z" fill="white"/>
    <path d="M99.3672 128L95.5078 113.818H99.4872L101.685 123.347H101.814L104.104 113.818H108.009L110.336 123.291H110.456L112.616 113.818H116.587L112.737 128H108.572L106.135 119.081H105.96L103.522 128H99.3672ZM122.729 128.268C121.824 128.268 121.018 128.111 120.31 127.797C119.602 127.477 119.042 127.006 118.629 126.384C118.223 125.756 118.02 124.975 118.02 124.039C118.02 123.251 118.165 122.589 118.454 122.054C118.743 121.518 119.137 121.088 119.636 120.761C120.134 120.435 120.701 120.189 121.335 120.023C121.975 119.857 122.646 119.74 123.347 119.672C124.172 119.586 124.837 119.506 125.342 119.432C125.847 119.352 126.213 119.235 126.441 119.081C126.668 118.927 126.782 118.699 126.782 118.398V118.342C126.782 117.758 126.597 117.305 126.228 116.985C125.865 116.665 125.348 116.505 124.677 116.505C123.969 116.505 123.406 116.662 122.987 116.976C122.569 117.284 122.292 117.671 122.156 118.139L118.519 117.844C118.703 116.982 119.066 116.237 119.608 115.609C120.15 114.975 120.848 114.489 121.704 114.151C122.566 113.806 123.563 113.634 124.695 113.634C125.483 113.634 126.237 113.726 126.958 113.911C127.684 114.095 128.327 114.381 128.887 114.769C129.454 115.157 129.9 115.656 130.226 116.265C130.552 116.868 130.715 117.591 130.715 118.435V128H126.985V126.033H126.874C126.647 126.477 126.342 126.867 125.96 127.206C125.579 127.538 125.12 127.8 124.585 127.991C124.049 128.175 123.431 128.268 122.729 128.268ZM123.855 125.553C124.434 125.553 124.945 125.439 125.388 125.212C125.831 124.978 126.179 124.664 126.431 124.27C126.684 123.876 126.81 123.43 126.81 122.931V121.426C126.687 121.506 126.517 121.58 126.302 121.648C126.093 121.709 125.856 121.768 125.591 121.823C125.326 121.872 125.062 121.919 124.797 121.962C124.532 121.999 124.292 122.032 124.077 122.063C123.615 122.131 123.212 122.239 122.867 122.386C122.523 122.534 122.255 122.734 122.064 122.987C121.873 123.233 121.778 123.54 121.778 123.91C121.778 124.445 121.972 124.855 122.36 125.138C122.753 125.415 123.252 125.553 123.855 125.553ZM137.7 109.091V128H133.767V109.091H137.7ZM144.784 109.091V128H140.851V109.091H144.784ZM154.398 128.277C152.939 128.277 151.683 127.982 150.631 127.391C149.584 126.794 148.778 125.95 148.212 124.861C147.646 123.765 147.362 122.469 147.362 120.974C147.362 119.515 147.646 118.235 148.212 117.133C148.778 116.031 149.575 115.172 150.603 114.557C151.637 113.941 152.85 113.634 154.241 113.634C155.177 113.634 156.048 113.784 156.854 114.086C157.666 114.381 158.374 114.828 158.977 115.425C159.587 116.022 160.061 116.773 160.399 117.678C160.738 118.576 160.907 119.629 160.907 120.835V121.915H148.932V119.478H157.205C157.205 118.912 157.082 118.41 156.835 117.973C156.589 117.536 156.248 117.194 155.811 116.948C155.38 116.696 154.878 116.57 154.306 116.57C153.709 116.57 153.179 116.708 152.718 116.985C152.262 117.256 151.905 117.622 151.646 118.084C151.388 118.539 151.256 119.047 151.249 119.607V121.925C151.249 122.626 151.379 123.233 151.637 123.744C151.902 124.254 152.274 124.648 152.754 124.925C153.235 125.202 153.804 125.341 154.463 125.341C154.9 125.341 155.3 125.279 155.663 125.156C156.026 125.033 156.337 124.848 156.595 124.602C156.854 124.356 157.051 124.054 157.186 123.697L160.824 123.938C160.639 124.812 160.261 125.575 159.688 126.227C159.122 126.874 158.39 127.378 157.491 127.741C156.598 128.098 155.567 128.277 154.398 128.277ZM171.017 113.818V116.773H162.477V113.818H171.017ZM164.416 110.42H168.349V123.642C168.349 124.005 168.404 124.288 168.515 124.491C168.626 124.688 168.78 124.827 168.977 124.907C169.18 124.987 169.414 125.027 169.678 125.027C169.863 125.027 170.048 125.012 170.232 124.981C170.417 124.944 170.559 124.916 170.657 124.898L171.276 127.825C171.079 127.886 170.802 127.957 170.445 128.037C170.088 128.123 169.654 128.175 169.143 128.194C168.195 128.231 167.364 128.105 166.65 127.815C165.942 127.526 165.391 127.077 164.997 126.467C164.603 125.858 164.41 125.089 164.416 124.159V110.42Z" fill="white"/>
</svg>
