<svg width="202" height="50" viewBox="0 0 202 50" fill="none" xmlns="http://www.w3.org/2000/svg">
    <g clip-path="url(#clip0_4_139)">
        <mask id="mask0_4_139" style="mask-type:luminance" maskUnits="userSpaceOnUse" x="0" y="10" width="202" height="30">
            <path d="M201.875 10H0V40H201.875V10Z" fill="white"/>
        </mask>
        <g mask="url(#mask0_4_139)">
            <path d="M33.9156 33.6531L28.3781 39.5906C28.2583 39.7196 28.1133 39.8225 27.952 39.8929C27.7907 39.9634 27.6166 39.9998 27.4406 40H1.19063C1.06543 39.9999 0.942969 39.9634 0.838238 39.8948C0.733509 39.8262 0.651059 39.7285 0.600981 39.6138C0.550903 39.499 0.535372 39.3722 0.556291 39.2487C0.577209 39.1253 0.633666 39.0106 0.718753 38.9188L6.25 32.9813C6.36979 32.8523 6.51482 32.7494 6.67613 32.6789C6.83741 32.6085 7.0115 32.5721 7.1875 32.5719H33.4375C33.5638 32.5693 33.6881 32.6041 33.7947 32.672C33.9013 32.7398 33.9856 32.8377 34.0366 32.9533C34.0878 33.0689 34.1034 33.197 34.0819 33.3215C34.0603 33.4461 34.0025 33.5614 33.9156 33.6531ZM28.3781 21.6938C28.2579 21.5654 28.1128 21.4629 27.9516 21.3925C27.7904 21.3221 27.6165 21.2853 27.4406 21.2844H1.19063C1.06543 21.2845 0.942969 21.321 0.838238 21.3897C0.733509 21.4583 0.651059 21.5559 0.600981 21.6707C0.550903 21.7854 0.535372 21.9123 0.556291 22.0357C0.577209 22.1591 0.633666 22.2738 0.718753 22.3657L6.25 28.3063C6.37022 28.4347 6.51538 28.5372 6.67657 28.6076C6.83775 28.6779 7.01163 28.7147 7.1875 28.7156H33.4375C33.5625 28.715 33.6844 28.6779 33.7888 28.6091C33.8931 28.5403 33.975 28.4426 34.0247 28.328C34.0744 28.2133 34.0897 28.0867 34.0684 27.9636C34.0475 27.8404 33.9913 27.726 33.9063 27.6344L28.3781 21.6938ZM1.19063 17.4281H27.4406C27.6166 17.428 27.7907 17.3915 27.952 17.3211C28.1133 17.2507 28.2583 17.1477 28.3781 17.0187L33.9156 11.0813C34.0025 10.9896 34.0603 10.8742 34.0819 10.7496C34.1034 10.6251 34.0878 10.497 34.0366 10.3814C33.9856 10.2658 33.9013 10.168 33.7947 10.1001C33.6881 10.0322 33.5638 9.99741 33.4375 10H7.1875C7.0115 10.0002 6.83741 10.0366 6.67613 10.1071C6.51482 10.1775 6.36979 10.2804 6.25 10.4094L0.718753 16.3469C0.633666 16.4387 0.577209 16.5534 0.556291 16.6768C0.535372 16.8003 0.550903 16.9271 0.600981 17.0419C0.651059 17.1566 0.733509 17.2543 0.838238 17.3229C0.942969 17.3915 1.06543 17.4281 1.19063 17.4281Z" fill="url(#paint0_linear_4_139)"/>
            <path d="M65.9188 22.6876H51.875V18.0626H69.5687V13.4376H51.8281C51.2219 13.4343 50.6213 13.5504 50.06 13.7793C49.4988 14.0083 48.9878 14.3455 48.5572 14.7718C48.1262 15.198 47.7834 15.705 47.5484 16.2638C47.3134 16.8225 47.1906 17.4221 47.1875 18.0282V22.7157C47.19 23.3223 47.3119 23.9226 47.5466 24.482C47.7813 25.0415 48.1238 25.5492 48.5547 25.9762C48.9859 26.4031 49.4969 26.7409 50.0584 26.9702C50.62 27.1995 51.2216 27.3159 51.8281 27.3126H65.8906V31.9376H47.5219V36.5626H65.9188C66.525 36.5659 67.1256 36.4497 67.6869 36.2208C68.2481 35.9919 68.7591 35.6547 69.1897 35.2284C69.6206 34.8021 69.9634 34.2951 70.1984 33.7364C70.4334 33.1776 70.5562 32.5781 70.5594 31.9719V27.2844C70.5569 26.6778 70.435 26.0776 70.2003 25.5181C69.9656 24.9586 69.6231 24.4509 69.1922 24.024C68.7609 23.597 68.25 23.2593 67.6884 23.0299C67.1269 22.8006 66.5253 22.6843 65.9188 22.6876Z" fill="#808085"/>
            <path d="M93.125 13.4375H79.0281C78.4209 13.4326 77.8187 13.5475 77.2559 13.7757C76.6934 14.0039 76.1813 14.3408 75.7491 14.7673C75.3166 15.1937 74.9728 15.7012 74.7372 16.2608C74.5012 16.8204 74.3781 17.421 74.375 18.0282V31.9719C74.3781 32.5791 74.5012 33.1797 74.7372 33.7392C74.9728 34.2988 75.3166 34.8063 75.7491 35.2328C76.1813 35.6592 76.6934 35.9962 77.2559 36.2244C77.8187 36.4526 78.4209 36.5675 79.0281 36.5625H93.125C93.7313 36.5658 94.3319 36.4497 94.8931 36.2208C95.4544 35.9918 95.9653 35.6546 96.3959 35.2283C96.8269 34.8021 97.1697 34.2951 97.4047 33.7363C97.6397 33.1776 97.7625 32.578 97.7656 31.9719V18.0282C97.7625 17.422 97.6397 16.8225 97.4047 16.2637C97.1697 15.705 96.8269 15.198 96.3959 14.7717C95.9653 14.3454 95.4544 14.0082 94.8931 13.7793C94.3319 13.5504 93.7313 13.4342 93.125 13.4375ZM93.0906 31.9375H79.0625V18.0625H93.0844L93.0906 31.9375Z" fill="#808085"/>
            <path d="M142.5 13.4376H128.75C128.144 13.4343 127.543 13.5504 126.982 13.7793C126.421 14.0083 125.91 14.3455 125.479 14.7718C125.048 15.1981 124.705 15.7051 124.47 16.2638C124.235 16.8225 124.112 17.4221 124.109 18.0282V36.5626H128.797V28.9657H142.484V36.5626H147.172V18.0282C147.169 17.4194 147.045 16.8173 146.808 16.2565C146.571 15.6957 146.226 15.1873 145.791 14.7606C145.357 14.3339 144.843 13.9974 144.278 13.7703C143.713 13.5433 143.109 13.4302 142.5 13.4376ZM142.466 24.3407H128.778V18.0626H142.466V24.3407Z" fill="#808085"/>
            <path d="M197.234 13.4376H183.484C182.878 13.4343 182.278 13.5504 181.716 13.7793C181.155 14.0083 180.644 14.3455 180.213 14.7718C179.782 15.198 179.44 15.705 179.205 16.2638C178.97 16.8225 178.847 17.4221 178.844 18.0282V36.5626H183.531V28.9657H197.188V36.5626H201.875V18.0282C201.872 17.4221 201.749 16.8225 201.514 16.2638C201.279 15.705 200.936 15.198 200.505 14.7718C200.074 14.3455 199.564 14.0083 199.003 13.7793C198.441 13.5504 197.841 13.4343 197.234 13.4376ZM197.188 24.3407H183.5V18.0626H197.188V24.3407Z" fill="#808085"/>
            <path d="M170 31.9375H168.125L161.422 15.375C161.192 14.8036 160.797 14.3139 160.287 13.9687C159.777 13.6235 159.175 13.4385 158.559 13.4375H154.4C153.996 13.4355 153.595 13.5131 153.221 13.6659C152.847 13.8187 152.506 14.0437 152.219 14.328C151.932 14.6124 151.703 14.9506 151.547 15.3233C151.39 15.6959 151.308 16.0958 151.306 16.5V36.5625H155.994V18.0625H157.869L164.569 34.625C164.802 35.1954 165.201 35.6831 165.713 36.0259C166.225 36.3689 166.828 36.5513 167.444 36.55H171.603C172.008 36.5521 172.408 36.4745 172.782 36.3217C173.157 36.1689 173.497 35.9439 173.784 35.6595C174.072 35.3752 174.3 35.037 174.457 34.6643C174.613 34.2916 174.695 33.8918 174.697 33.4875V13.4375H170V31.9375Z" fill="#808085"/>
            <path d="M106.594 13.4375H101.906V31.9719C101.909 32.5793 102.033 33.1802 102.269 33.7399C102.505 34.2997 102.849 34.8074 103.281 35.2339C103.714 35.6604 104.227 35.9972 104.789 36.2252C105.352 36.4532 105.955 36.5678 106.562 36.5625H120.625V31.9375H106.594V13.4375Z" fill="#808085"/>
        </g>
    </g>
    <defs>
        <linearGradient id="paint0_linear_4_139" x1="3.37813" y1="40.7157" x2="30.9031" y2="9.68439" gradientUnits="userSpaceOnUse">
            <stop offset="0.08" stop-color="#808085"/>
            <stop offset="0.3" stop-color="#808085"/>
            <stop offset="0.5" stop-color="#808085"/>
            <stop offset="0.6" stop-color="#808085"/>
            <stop offset="0.72" stop-color="#808085"/>
            <stop offset="0.97" stop-color="#808085"/>
        </linearGradient>
        <clipPath id="clip0_4_139">
            <rect width="201.875" height="30" fill="white" transform="translate(0 10)"/>
        </clipPath>
    </defs>
</svg>
